:FULLY-SPECIFIED
:FORCE-ALL-JOINTS-BE-3DOF
:DEGREES
306
root 0.381417 15.3691 -35.9387 27.458 29.4673 18.2165
lfemur -37.5188 17.4861 -17.2077
ltibia 72.9487 0 0
lfoot -19.9892 21.0931 0
ltoes -8.12436 0 0
rfemur -36.9205 -14.378 13.7707
rtibia 56.6866 0 0
rfoot -17.2626 -9.01919 0
rtoes -16.5888 0 0
lowerback 15.0373 2.17946 1.71856
upperback -2.98801 3.50762 1.7252
thorax -11.6315 1.56723 0.0467609
lowerneck -3.90929 7.52402 1.95635
upperneck 4.76373 10.3038 -5.53926
head 2.96053 5.029 -1.718
lclavicle 1.75607e-14 -7.28008e-15 0
lhumerus 0.866757 -60.3743 83.8073
lradius 114.309 0 0
lwrist 6.93073 0 0
lhand -23.322 42.568 0
lfingers 7.12502 0 0
lthumb 3.1321 72.5232 0
rclavicle 1.75607e-14 -7.28008e-15 0
rhumerus -23.7912 45.9901 -83.7411
rradius 64.9852 0 0
rwrist -1.29685 0 0
rhand -1.85091 -30.7449 0
rfingers 7.12502 0 0
rthumb 23.7644 -58.8109 0
307
root 0.49137 15.357 -35.8965 29.1888 30.3386 20.1787
lfemur -36.6954 17.1077 -17.1619
ltibia 72.3076 0 0
lfoot -20.1741 21.1052 0
ltoes -8.20664 0 0
rfemur -37.0414 -14.0177 13.4764
rtibia 56.1844 0 0
rfoot -16.5431 -8.65509 0
rtoes -15.996 0 0
lowerback 14.9869 2.15341 1.47859
upperback -2.96013 3.42755 1.71966
thorax -11.5745 1.54345 0.197776
lowerneck -3.94683 7.2244 1.7726
upperneck 4.82857 9.90556 -5.35783
head 2.97767 4.83153 -1.64416
lclavicle 1.75685e-14 -6.81141e-15 0
lhumerus -0.153688 -59.6225 84.5497
lradius 113.45 0 0
lwrist 7.39253 0 0
lhand -23.3204 42.5796 0
lfingers 7.12502 0 0
lthumb 3.13368 72.5344 0
rclavicle 1.75685e-14 -6.81141e-15 0
rhumerus -22.7106 45.1357 -83.4238
rradius 64.7665 0 0
rwrist -1.40518 0 0
rhand -1.49506 -30.5833 0
rfingers 7.12502 0 0
rthumb 24.1012 -58.5644 0
308
root 0.601323 15.3449 -35.8543 31.1011 31.3119 22.3426
lfemur -35.8019 16.7 -17.1174
ltibia 71.6202 0 0
lfoot -20.374 21.132 0
ltoes -8.29567 0 0
rfemur -37.1824 -13.6272 13.1534
rtibia 55.6375 0 0
rfoot -15.7476 -8.26301 0
rtoes -15.3515 0 0
lowerback 14.9367 2.12506 1.21789
upperback -2.92915 3.34051 1.71387
thorax -11.5142 1.51756 0.362004
lowerneck -3.9883 6.90355 1.57682
upperneck 4.89834 9.47935 -5.16662
head 2.99628 4.62012 -1.56633
lclavicle 1.75768e-14 -6.305e-15 0
lhumerus -1.25421 -58.8365 85.3598
lradius 112.567 0 0
lwrist 7.92325 0 0
lhand -23.3153 42.6004 0
lfingers 7.12502 0 0
lthumb 3.13853 72.5548 0
rclavicle 1.75768e-14 -6.305e-15 0
rhumerus -21.5211 44.2282 -83.0787
rradius 64.5494 0 0
rwrist -1.52691 0 0
rhand -1.09332 -30.4087 0
rfingers 7.12502 0 0
rthumb 24.4817 -58.2955 0
309
root 0.711277 15.3328 -35.8121 33.2055 32.3938 24.72
lfemur -34.8348 16.2618 -17.0749
ltibia 70.8851 0 0
lfoot -20.5896 21.1751 0
ltoes -8.39178 0 0
rfemur -37.345 -13.205 12.8001
rtibia 55.0436 0 0
rfoot -14.8717 -7.8418 0
rtoes -14.6529 0 0
lowerback 14.8868 2.0943 0.935451
upperback -2.89488 3.24615 1.70784
thorax -11.4507 1.48943 0.540092
lowerneck -4.03393 6.56069 1.36865
upperneck 4.97323 9.02419 -4.96553
head 3.01645 4.39428 -1.48446
lclavicle 1.75854e-14 -5.75917e-15 0
lhumerus -2.43819 -58.0165 86.2412
lradius 111.662 0 0
lwrist 8.52796 0 0
lhand -23.3066 42.6312 0
lfingers 7.12502 0 0
lthumb 3.14697 72.5852 0
rclavicle 1.75854e-14 -5.75917e-15 0
rhumerus -20.2162 43.2661 -82.7043
rradius 64.3353 0 0
rwrist -1.66292 0 0
rhand -0.642552 -30.2205 0
rfingers 7.12502 0 0
rthumb 24.9087 -58.0031 0
310
root 0.82123 15.3207 -35.7699 35.5128 33.5908 27.3225
lfemur -33.7908 15.7918 -17.0345
ltibia 70.1004 0 0
lfoot -20.8215 21.236 0
ltoes -8.49525 0 0
rfemur -37.5308 -12.7499 12.415
rtibia 54.4005 0 0
rfoot -13.9108 -7.39032 0
rtoes -13.8976 0 0
lowerback 14.8377 2.06099 0.630265
upperback -2.85711 3.14413 1.70157
thorax -11.384 1.45897 0.73269
lowerneck -4.08396 6.19508 1.14773
upperneck 5.05344 8.5391 -4.75442
head 3.03823 4.15352 -1.39848
lclavicle 1.75946e-14 -5.17226e-15 0
lhumerus -3.70904 -57.1626 87.1974
lradius 110.737 0 0
lwrist 9.21173 0 0
lhand -23.2938 42.673 0
lfingers 7.12502 0 0
lthumb 3.15935 72.6265 0
rclavicle 1.75946e-14 -5.17226e-15 0
rhumerus -18.7898 42.2481 -82.2994
rradius 64.1255 0 0
rwrist -1.8141 0 0
rhand -0.139641 -30.018 0
rfingers 7.12502 0 0
rthumb 25.3853 -57.6861 0
311
root 0.931183 15.3086 -35.7277 38.0335 34.9093 30.1618
lfemur -32.6666 15.2888 -16.9967
ltibia 69.2645 0 0
lfoot -21.0704 21.3161 0
ltoes -8.6064 0 0
rfemur -37.7414 -12.2603 11.9964
rtibia 53.7059 0 0
rfoot -12.8604 -6.90741 0
rtoes -13.083 0 0
lowerback 14.7895 2.02504 0.30133
upperback -2.81567 3.0341 1.69507
thorax -11.3138 1.42607 0.940447
lowerneck -4.1386 5.80597 0.913715
upperneck 5.13917 8.02311 -4.53317
head 3.06171 3.89734 -1.30836
lclavicle 1.76041e-14 -4.54261e-15 0
lhumerus -5.07014 -56.2749 88.2318
lradius 109.793 0 0
lwrist 9.97961 0 0
lhand -23.2765 42.7267 0
lfingers 7.12502 0 0
lthumb 3.17601 72.6797 0
rclavicle 1.76041e-14 -4.54261e-15 0
rhumerus -17.2358 41.1729 -81.8626
rradius 63.9213 0 0
rwrist -1.98135 0 0
rhand 0.418533 -29.8008 0
rfingers 7.12502 0 0
rthumb 25.9144 -57.3432 0
312
root 1.04114 15.2965 -35.6855 40.7784 36.356 33.2496
lfemur -31.4587 14.7516 -16.962
ltibia 68.3757 0 0
lfoot -21.337 21.4171 0
ltoes -8.72554 0 0
rfemur -37.9782 -11.7349 11.5427
rtibia 52.9577 0 0
rfoot -11.7161 -6.39192 0
rtoes -12.2067 0 0
lowerback 14.7426 1.98632 -0.0523564
upperback -2.77036 2.91573 1.68833
thorax -11.2403 1.39063 1.16401
lowerneck -4.19811 5.39261 0.666245
upperneck 5.23062 7.47525 -4.30167
head 3.08695 3.62527 -1.21404
lclavicle 1.76142e-14 -3.86856e-15 0
lhumerus -6.52488 -55.3538 89.3481
lradius 108.832 0 0
lwrist 10.8367 0 0
lhand -23.2545 42.7932 0
lfingers 7.12502 0 0
lthumb 3.1973 72.7457 0
rclavicle 1.76142e-14 -3.86856e-15 0
rhumerus -15.5479 40.039 -81.3925
rradius 63.724 0 0
rwrist -2.16555 0 0
rhand 1.03509 -29.5682 0
rfingers 7.12502 0 0
rthumb 26.4991 -56.9734 0
313
root 1.15109 15.2844 -35.6434 43.7582 37.9373 36.5977
lfemur -30.164 14.179 -16.9307
ltibia 67.4324 0 0
lfoot -21.6218 21.5404 0
ltoes -8.85296 0 0
rfemur -38.2429 -11.1722 11.0525
rtibia 52.1534 0 0
rfoot -10.4733 -5.84272 0
rtoes -11.2661 0 0
lowerback 14.6972 1.94472 -0.431798
upperback -2.72099 2.78868 1.68137
thorax -11.1633 1.35252 1.40403
lowerneck -4.2627 4.95424 0.404967
upperneck 5.32798 6.89453 -4.05978
head 3.11403 3.3368 -1.11546
lclavicle 1.76247e-14 -3.14844e-15 0
lhumerus -8.07667 -54.3993 90.5496
lradius 107.857 0 0
lwrist 11.7879 0 0
lhand -23.2273 42.8735 0
lfingers 7.12502 0 0
lthumb 3.22356 72.8253 0
rclavicle 1.76247e-14 -3.14844e-15 0
rhumerus -13.7198 38.8453 -80.8877
rradius 63.5348 0 0
rwrist -2.36759 0 0
rhand 1.71316 -29.3197 0
rfingers 7.12502 0 0
rthumb 27.1421 -56.5754 0
314
root 1.26104 15.2723 -35.6012 46.9835 39.6598 40.2175
lfemur -28.779 13.5698 -16.9031
ltibia 66.4328 0 0
lfoot -21.9257 21.6876 0
ltoes -8.98899 0 0
rfemur -38.537 -10.5709 10.524
rtibia 51.2909 0 0
rfoot -9.12757 -5.25865 0
rtoes -10.2587 0 0
lowerback 14.6535 1.90013 -0.837998
upperback -2.66737 2.6526 1.67417
thorax -11.0828 1.31166 1.66116
lowerneck -4.3326 4.49011 0.129527
upperneck 5.43146 6.28 -3.8074
head 3.14301 3.03146 -1.01259
lclavicle 1.76356e-14 -2.38059e-15 0
lhumerus -9.72888 -53.4115 91.8399
lradius 106.868 0 0
lwrist 12.8385 0 0
lhand -23.1946 42.9685 0
lfingers 7.12502 0 0
lthumb 3.25514 72.9196 0
rclavicle 1.76356e-14 -2.38059e-15 0
rhumerus -11.7455 37.5902 -80.3469
rradius 63.3551 0 0
rwrist -2.58836 0 0
rhand 2.45585 -29.0547 0
rfingers 7.12502 0 0
rthumb 27.8467 -56.1482 0
315
root 1.371 15.2602 -35.559 50.465 41.53 44.1209
lfemur -27.3004 12.9227 -16.8797
ltibia 65.3753 0 0
lfoot -22.2492 21.8601 0
ltoes -9.13391 0 0
rfemur -38.862 -9.92957 9.9558
rtibia 50.368 0 0
rfoot -7.67438 -4.63857 0
rtoes -9.18195 0 0
lowerback 14.612 1.85243 -1.27196
upperback -2.6093 2.50716 1.66676
thorax -10.9987 1.26793 1.93604
lowerneck -4.40806 3.99947 -0.160429
upperneck 5.54124 5.63068 -3.54439
head 3.17398 2.70875 -0.905354
lclavicle 1.7647e-14 -1.56335e-15 0
lhumerus -11.4849 -52.3908 93.2224
lradius 105.868 0 0
lwrist 13.9934 0 0
lhand -23.156 43.0791 0
lfingers 7.12502 0 0
lthumb 3.29236 73.0295 0
rclavicle 1.7647e-14 -1.56335e-15 0
rhumerus -9.61861 36.2725 -79.7687
rradius 63.1863 0 0
rwrist -2.82874 0 0
rhand 3.26629 -28.7725 0
rfingers 7.12502 0 0
rthumb 28.6156 -55.6907 0
316
root 1.48095 15.2481 -35.5168 54.2133 43.5544 48.3195
lfemur -25.7248 12.2365 -16.8609
ltibia 64.2581 0 0
lfoot -22.593 22.0596 0
ltoes -9.28805 0 0
rfemur -39.2194 -9.24677 9.34621
rtibia 49.3824 0 0
rfoot -6.10925 -3.98133 0
rtoes -8.03337 0 0
lowerback 14.5727 1.80151 -1.73469
upperback -2.5466 2.352 1.65911
thorax -10.9111 1.22122 2.22932
lowerneck -4.48929 3.48156 -0.465256
upperneck 5.65753 4.9456 -3.27063
head 3.20699 2.36818 -0.793716
lclavicle 1.76589e-14 -6.95048e-16 0
lhumerus -13.3482 -51.3372 94.7007
lradius 104.858 0 0
lwrist 15.2577 0 0
lhand -23.1113 43.2062 0
lfingers 7.12502 0 0
lthumb 3.33558 73.1558 0
rclavicle 1.76589e-14 -6.95048e-16 0
rhumerus -7.333 34.8908 -79.1517
rradius 63.0295 0 0
rwrist -3.08962 0 0
rhand 4.14761 -28.4728 0
rfingers 7.12502 0 0
rthumb 29.4519 -55.2015 0
317
root 1.5909 15.236 -35.4746 58.2392 45.7395 52.825
lfemur -24.049 11.51 -16.847
ltibia 63.0796 0 0
lfoot -22.9578 22.2875 0
ltoes -9.4517 0 0
rfemur -39.6109 -8.5211 8.69367
rtibia 48.3318 0 0
rfoot -4.42768 -3.28578 0
rtoes -6.8104 0 0
lowerback 14.5361 1.74724 -2.22719
upperback -2.47907 2.1868 1.65125
thorax -10.8197 1.17143 2.54166
lowerneck -4.57654 2.93564 -0.785308
upperneck 5.78053 4.22378 -2.98601
head 3.24212 2.00927 -0.677621
lclavicle 1.76713e-14 2.25973e-16 0
lhumerus -15.3221 -50.2509 96.2783
lradius 103.841 0 0
lwrist 16.6365 0 0
lhand -23.0599 43.3508 0
lfingers 7.12502 0 0
lthumb 3.38515 73.2995 0
rclavicle 1.76713e-14 2.25973e-16 0
rhumerus -4.88244 33.4438 -78.4946
rradius 62.8861 0 0
rwrist -3.3719 0 0
rhand 5.10291 -28.1547 0
rfingers 7.12502 0 0
rthumb 30.3586 -54.6797 0
318
root 1.70086 15.2239 -35.4324 62.5534 48.0919 57.6491
lfemur -22.2695 10.742 -16.8385
ltibia 61.8382 0 0
lfoot -23.3442 22.5454 0
ltoes -9.62517 0 0
rfemur -40.038 -7.75116 7.99661
rtibia 47.2141 0 0
rfoot -2.62517 -2.55077 0
rtoes -5.51053 0 0
lowerback 14.5023 1.68953 -2.75046
upperback -2.40652 2.01121 1.64317
thorax -10.7247 1.11845 2.8737
lowerneck -4.67003 2.36096 -1.12094
upperneck 5.91044 3.46425 -2.6904
head 3.27945 1.63151 -0.557016
lclavicle 1.76841e-14 1.20138e-15 0
lhumerus -17.4099 -49.1321 97.9587
lradius 102.818 0 0
lwrist 18.1348 0 0
lhand -23.0017 43.5138 0
lfingers 7.12502 0 0
lthumb 3.44139 73.4615 0
rclavicle 1.76841e-14 1.20138e-15 0
rhumerus -2.26072 31.9301 -77.7959
rradius 62.7574 0 0
rwrist -3.67645 0 0
rhand 6.13532 -27.8178 0
rfingers 7.12502 0 0
rthumb 31.3386 -54.124 0
319
root 1.81081 15.2118 -35.3902 67.1664 50.6181 62.8034
lfemur -20.3831 9.93125 -16.8357
ltibia 60.532 0 0
lfoot -23.7529 22.8348 0
ltoes -9.80878 0 0
rfemur -40.5021 -6.93554 7.25343
rtibia 46.0269 0 0
rfoot -0.697221 -1.77516 0
rtoes -4.13123 0 0
lowerback 14.4717 1.62824 -3.30551
upperback -2.32877 1.82488 1.63488
thorax -10.6259 1.06218 3.22609
lowerneck -4.76999 1.75675 -1.4725
upperneck 6.04744 2.66604 -2.38368
head 3.31904 1.23444 -0.43185
lclavicle 1.76975e-14 2.23283e-15 0
lhumerus -19.6152 -47.981 99.7452
lradius 101.791 0 0
lwrist 19.7578 0 0
lhand -22.9362 43.6961 0
lfingers 7.12502 0 0
lthumb 3.50466 73.6427 0
rclavicle 1.76975e-14 2.23283e-15 0
rhumerus 0.538354 30.3483 -77.0544
rradius 62.6447 0 0
rwrist -4.00417 0 0
rhand 7.24796 -27.4616 0
rfingers 7.12502 0 0
rthumb 32.3949 -53.5333 0
